<svg width="32" height="32" viewBox="0 0 32 32" fill="none" xmlns="http://www.w3.org/2000/svg">
<path d="M16 32C11.7266 32 7.70825 30.3361 4.68656 27.3134C1.66393 24.2917 0 20.2734 0 16C0 11.7266 1.66393 7.70825 4.68656 4.68656C7.70825 1.66393 11.7266 0 16 0C20.2734 0 24.2917 1.66393 27.3134 4.68656C30.3351 7.70825 32 11.7266 32 16C32 20.2734 30.3361 24.2917 27.3134 27.3134C24.2917 30.3351 20.2734 32 16 32Z" fill="#DDD9D1"/>
<path d="M21.1593 10.9822C21.6283 10.9822 22.009 11.3628 22.009 11.8318C22.009 12.7857 22.7851 13.5609 23.738 13.5609C24.691 13.5609 25.4671 12.7857 25.4671 11.8318C25.4671 11.3628 25.8477 10.9822 26.3168 10.9822C26.7858 10.9822 27.1664 11.3628 27.1664 11.8318C27.1664 13.7219 25.6281 15.2602 23.738 15.2602C21.848 15.2602 20.3097 13.7219 20.3097 11.8318C20.3097 11.3628 20.6903 10.9822 21.1593 10.9822Z" fill="white"/>
<path d="M5.65345 10.9822C6.12248 10.9822 6.5031 11.3628 6.5031 11.8318C6.5031 12.7857 7.2783 13.5609 8.23217 13.5609C9.18605 13.5609 9.96125 12.7857 9.96125 11.8318C9.96125 11.3628 10.3419 10.9822 10.8109 10.9822C11.2799 10.9822 11.6605 11.3628 11.6605 11.8318C11.6605 13.7219 10.1222 15.2602 8.23217 15.2602C6.3421 15.2602 4.8038 13.7219 4.8038 11.8318C4.8038 11.3628 5.18442 10.9822 5.65345 10.9822Z" fill="white"/>
<path d="M8.74495 23.9586C8.12981 23.9586 7.66265 23.4123 7.74733 22.8037C8.31128 18.7536 11.7974 15.6259 16 15.6259C20.2026 15.6259 23.6887 18.7536 24.2527 22.8037C24.3373 23.4132 23.8702 23.9586 23.255 23.9586H8.74495Z" fill="white"/>
</svg>
