<svg width="33" height="32" viewBox="0 0 33 32" fill="none" xmlns="http://www.w3.org/2000/svg">
<path d="M16.5 32C12.2266 32 8.20825 30.3361 5.18656 27.3134C2.16393 24.2917 0.5 20.2734 0.5 16C0.5 11.7266 2.16393 7.70825 5.18656 4.68656C8.20825 1.66393 12.2266 0 16.5 0C20.7734 0 24.7917 1.66393 27.8134 4.68656C30.8351 7.70825 32.5 11.7266 32.5 16C32.5 20.2734 30.8361 24.2917 27.8134 27.3134C24.7917 30.3351 20.7734 32 16.5 32Z" fill="#DDD9D1"/>
<path d="M9.28032 14.4189C10.5724 14.4189 11.6199 13.3714 11.6199 12.0793C11.6199 10.7872 10.5724 9.73975 9.28032 9.73975C7.98822 9.73975 6.94077 10.7872 6.94077 12.0793C6.94077 13.3714 7.98822 14.4189 9.28032 14.4189Z" fill="white"/>
<path d="M23.7197 14.4189C25.0118 14.4189 26.0592 13.3714 26.0592 12.0793C26.0592 10.7872 25.0118 9.73975 23.7197 9.73975C22.4276 9.73975 21.3801 10.7872 21.3801 12.0793C21.3801 13.3714 22.4276 14.4189 23.7197 14.4189Z" fill="white"/>
<path d="M24.5572 24.1307C24.1729 24.1307 23.822 23.8739 23.7187 23.4839C22.8551 20.2091 19.8865 17.9217 16.4991 17.9217C13.1116 17.9217 10.1439 20.2091 9.27938 23.4839C9.15747 23.9474 8.68286 24.2238 8.21941 24.1019C7.75597 23.98 7.47958 23.5053 7.60149 23.0419C8.6661 19.0058 12.3243 16.187 16.4981 16.187C20.6719 16.187 24.3302 19.0058 25.3948 23.0419C25.5167 23.5053 25.2403 23.98 24.7778 24.1019C24.7033 24.1214 24.6289 24.1307 24.5563 24.1307H24.5572Z" fill="white"/>
</svg>
