<svg width="32" height="32" viewBox="0 0 32 32" fill="none" xmlns="http://www.w3.org/2000/svg">
<g clip-path="url(#clip0_1152_2057)">
<path d="M16 32C11.7266 32 7.70825 30.3361 4.68656 27.3134C1.66393 24.2917 0 20.2734 0 16C0 11.7266 1.66393 7.70825 4.68656 4.68656C7.70825 1.66393 11.7266 0 16 0C20.2734 0 24.2917 1.66393 27.3134 4.68656C30.3351 7.70825 32 11.7266 32 16C32 20.2734 30.3361 24.2917 27.3134 27.3134C24.2917 30.3351 20.2734 32 16 32Z" fill="#DDD9D1"/>
<path d="M8.78032 14.4189C10.0724 14.4189 11.1199 13.3714 11.1199 12.0793C11.1199 10.7872 10.0724 9.73975 8.78032 9.73975C7.48822 9.73975 6.44077 10.7872 6.44077 12.0793C6.44077 13.3714 7.48822 14.4189 8.78032 14.4189Z" fill="white"/>
<path d="M23.2197 14.4189C24.5118 14.4189 25.5592 13.3714 25.5592 12.0793C25.5592 10.7872 24.5118 9.73975 23.2197 9.73975C21.9276 9.73975 20.8801 10.7872 20.8801 12.0793C20.8801 13.3714 21.9276 14.4189 23.2197 14.4189Z" fill="white"/>
<path d="M23.2197 21.4627H8.78032C8.30106 21.4627 7.91299 21.0746 7.91299 20.5954C7.91299 20.1161 8.30106 19.728 8.78032 19.728H23.2197C23.699 19.728 24.087 20.1161 24.087 20.5954C24.087 21.0746 23.699 21.4627 23.2197 21.4627Z" fill="white"/>
</g>
<defs>
<clipPath id="clip0_1152_2057">
<rect width="32" height="32" fill="white"/>
</clipPath>
</defs>
</svg>
