<svg width="33" height="32" viewBox="0 0 33 32" fill="none" xmlns="http://www.w3.org/2000/svg">
<g clip-path="url(#clip0_1152_2013)">
<path d="M16.5 32C12.2266 32 8.20825 30.3361 5.18656 27.3134C2.16393 24.2917 0.5 20.2734 0.5 16C0.5 11.7266 2.16393 7.70825 5.18656 4.68656C8.20825 1.66393 12.2266 0 16.5 0C20.7734 0 24.7917 1.66393 27.8134 4.68656C30.8351 7.70825 32.5 11.7266 32.5 16C32.5 20.2734 30.8361 24.2917 27.8134 27.3134C24.7917 30.3351 20.7734 32 16.5 32Z" fill="#DDD9D1"/>
<path d="M11.5897 12.4547C11.7967 11.1793 10.9306 9.97751 9.65521 9.77048C8.3798 9.56345 7.17805 10.4295 6.97102 11.705C6.76399 12.9804 7.63008 14.1821 8.90549 14.3891C10.1809 14.5962 11.3827 13.7301 11.5897 12.4547Z" fill="white"/>
<path d="M25.9952 12.6156C26.292 11.358 25.5131 10.098 24.2556 9.80118C22.998 9.50437 21.738 10.2832 21.4412 11.5408C21.1444 12.7983 21.9232 14.0584 23.1807 14.3552C24.4383 14.652 25.6983 13.8731 25.9952 12.6156Z" fill="white"/>
<path d="M16.5 26.1697C12.3262 26.1697 8.66797 23.3509 7.60335 19.3148C7.48144 18.8514 7.75783 18.3768 8.22127 18.2549C8.68472 18.133 9.15933 18.4093 9.28124 18.8728C10.1448 22.1476 13.1135 24.4351 16.5009 24.4351C19.8883 24.4351 22.8561 22.1476 23.7206 18.8728C23.8425 18.4093 24.3171 18.133 24.7806 18.2549C25.244 18.3768 25.5204 18.8514 25.3976 19.3148C24.3329 23.3509 20.6747 26.1697 16.5009 26.1697H16.5Z" fill="white"/>
</g>
<defs>
<clipPath id="clip0_1152_2013">
<rect width="32" height="32" fill="white" transform="translate(0.5)"/>
</clipPath>
</defs>
</svg>
