<svg width="32" height="32" viewBox="0 0 32 32" fill="none" xmlns="http://www.w3.org/2000/svg">
<path d="M16 32C11.7266 32 7.70825 30.3361 4.68656 27.3134C1.66393 24.2917 0 20.2734 0 16C0 11.7266 1.66393 7.70825 4.68656 4.68656C7.70825 1.66393 11.7266 0 16 0C20.2734 0 24.2917 1.66393 27.3134 4.68656C30.3351 7.70825 32 11.7266 32 16C32 20.2734 30.3361 24.2917 27.3134 27.3134C24.2917 30.3351 20.2734 32 16 32Z" fill="#DDD9D1"/>
<path d="M10.8109 14.5799C10.3419 14.5799 9.96128 14.1993 9.96128 13.7303C9.96128 12.7764 9.18515 12.0012 8.23221 12.0012C7.27926 12.0012 6.50313 12.7764 6.50313 13.7303C6.50313 14.1993 6.12251 14.5799 5.65348 14.5799C5.18445 14.5799 4.80383 14.1993 4.80383 13.7303C4.80383 11.8392 6.34213 10.3019 8.23221 10.3019C10.1223 10.3019 11.6606 11.8402 11.6606 13.7303C11.6606 14.1993 11.28 14.5799 10.8109 14.5799Z" fill="white"/>
<path d="M26.3168 14.5799C25.8478 14.5799 25.4671 14.1993 25.4671 13.7303C25.4671 12.7764 24.6919 12.0012 23.7381 12.0012C22.7842 12.0012 22.009 12.7764 22.009 13.7303C22.009 14.1993 21.6284 14.5799 21.1593 14.5799C20.6903 14.5799 20.3097 14.1993 20.3097 13.7303C20.3097 11.8392 21.848 10.3019 23.7381 10.3019C25.6281 10.3019 27.1664 11.8402 27.1664 13.7303C27.1664 14.1993 26.7858 14.5799 26.3168 14.5799Z" fill="white"/>
<path d="M23.2551 17.5299C23.8702 17.5299 24.3374 18.0762 24.2527 18.6848C23.6887 22.7348 20.2027 25.8626 16 25.8626C11.7974 25.8626 8.31131 22.7348 7.74736 18.6848C7.66268 18.0752 8.12985 17.5299 8.74498 17.5299H23.2551Z" fill="white"/>
</svg>
