<svg width="163" height="132" viewBox="0 0 163 132" fill="none" xmlns="http://www.w3.org/2000/svg">
<path fill-rule="evenodd" clip-rule="evenodd" d="M94.264 12.9382C94.264 20.0838 88.4714 25.8764 81.3258 25.8764C74.1803 25.8764 68.3876 20.0838 68.3876 12.9382C68.3876 5.79263 74.1803 0 81.3258 0C88.4714 0 94.264 5.79263 94.264 12.9382ZM64.3213 40.2933C64.3213 46.5654 61.1972 52.1079 56.4201 55.4494H56.5584C54.2788 56.6816 49.6827 60.1072 49.5348 63.9517C49.387 67.7962 49.4732 73.9326 49.5348 76.5202C49.5901 77.9578 50.4989 81.2511 53.5702 83.9422C57.5891 86.5007 60.255 90.9952 60.255 96.1124C60.255 104.075 53.8004 110.529 45.8382 110.529C37.876 110.529 31.4213 104.075 31.4213 96.1124C31.4213 90.8531 34.2375 86.2516 38.444 83.7335C39.6789 82.4895 42.001 79.4715 42.1416 76.5202C42.2894 73.4151 42.2032 66.8474 42.1416 63.9517C42.1416 62.1049 40.4602 59.0354 37.8694 56.9751C31.6505 53.999 27.355 47.6478 27.355 40.2933C27.355 30.0853 35.6302 21.8101 45.8382 21.8101C56.0462 21.8101 64.3213 30.0853 64.3213 40.2933ZM25.8764 72.0843C25.8764 79.2298 20.0838 85.0225 12.9382 85.0225C5.79263 85.0225 0 79.2298 0 72.0843C0 64.9387 5.79263 59.1461 12.9382 59.1461C20.0838 59.1461 25.8764 64.9387 25.8764 72.0843ZM106.232 55.4494C101.454 52.1079 98.3303 46.5654 98.3303 40.2933C98.3303 30.0853 106.606 21.8101 116.813 21.8101C127.021 21.8101 135.297 30.0853 135.297 40.2933C135.297 47.6478 131.001 53.999 124.782 56.9751C122.191 59.0354 120.51 62.1049 120.51 63.9517C120.448 66.8474 120.362 73.4151 120.51 76.5202C120.651 79.4715 122.973 82.4895 124.208 83.7336C128.414 86.2516 131.23 90.8531 131.23 96.1124C131.23 104.075 124.776 110.529 116.813 110.529C108.851 110.529 102.397 104.075 102.397 96.1124C102.397 90.9952 105.063 86.5007 109.081 83.9422C112.153 81.2511 113.062 77.9578 113.117 76.5202C113.178 73.9326 113.265 67.7962 113.117 63.9517C112.969 60.1072 108.373 56.6816 106.093 55.4494H106.232ZM136.775 72.0843C136.775 79.2298 142.568 85.0225 149.713 85.0225C156.859 85.0225 162.652 79.2298 162.652 72.0843C162.652 64.9387 156.859 59.1461 149.713 59.1461C142.568 59.1461 136.775 64.9387 136.775 72.0843ZM81.3258 85.0225C88.4714 85.0225 94.264 79.2298 94.264 72.0843C94.264 64.9387 88.4714 59.1461 81.3258 59.1461C74.1803 59.1461 68.3876 64.9387 68.3876 72.0843C68.3876 79.2298 74.1803 85.0225 81.3258 85.0225ZM81.3258 131.6C88.4714 131.6 94.264 125.807 94.264 118.662C94.264 111.516 88.4714 105.724 81.3258 105.724C74.1803 105.724 68.3876 111.516 68.3876 118.662C68.3876 125.807 74.1803 131.6 81.3258 131.6Z" fill="url(#paint0_linear_277_75)"/>
<defs>
<linearGradient id="paint0_linear_277_75" x1="144.908" y1="15.1562" x2="22.3646" y2="114.78" gradientUnits="userSpaceOnUse">
<stop stop-color="#483E7D"/>
<stop offset="1" stop-color="#7E61B2"/>
</linearGradient>
</defs>
</svg>
