<svg id="Layer_1" data-name="Layer 1" xmlns="http://www.w3.org/2000/svg" viewBox="0 0 318.48117 279.74367"><path d="M440.06166,402.13016c-2.41228,1.90716-4.89907,3.72821-7.2223,5.73825-6.022,5.21019-11.85313,10.64677-17.97984,15.72848-8.176,6.78145-16.4924,13.39867-24.87091,19.92941q-14.376,11.20552-28.98458,22.11152c-5.03312,3.75838-10.58059,6.08756-17.14983,5.78721a7.23165,7.23165,0,0,0-5.25576,2.65413q-9.12112,12.46524-17.6627,25.35153c-3.87815,5.844-7.17009,7.60733-14.30731,6.22688-9.6369-1.86388-19.20517-4.10158-28.87325-5.7714a10.29978,10.29978,0,0,0-7.17992,1.45137c-7.329,5.46729-14.3,11.415-21.39617,17.19391-1.16232.94648-2.27268,1.957-3.43891,2.89841-7.0337,5.678-9.98837,4.75393-12.58037-3.90215-.60037-2.005-1.254-3.994-2.04035-6.48943-3.85665,1.74737-7.10422,3.34962-10.45094,4.70755-6.65589,2.7005-9.23875.82258-12.22086-5.56922-6.38308-13.68135-13.48114-27.03171-20.45191-40.4315-.55919-1.07492-2.3132-1.72831-3.647-2.16871-10.8755-3.59106-21.80232-7.02795-32.65405-10.68807a6.49679,6.49679,0,0,1-2.97435-2.9501c-.97771-1.71332-1.15552-3.954-2.31768-5.47995-9.293-12.20217-11.3131-27.14438-15.797-41.1633-2.328-7.27866-4.8723-14.4881-7.31414-21.7304-.40377-1.19756-.78305-2.40335-1.71109-5.25922,27.54051,9.24658,53.76293,17.97744,80.42053,29.6453-2.2273-20.67652-4.27768-39.71073-6.41836-59.58316-4.94889,2.66742-9.08048,5.08526-13.37324,7.17146q-17.69367,8.59879-35.53624,16.88688c-1.28463.59353-3.12838-.0231-4.71278-.0784.26384-1.17948.1253-2.77544.85114-3.47677,13.50007-13.04415,23.97483-29.06083,39.73918-39.921,5.54377-3.81912,9.96867-7.25615,16.67924-1.65011,3.00265,2.50843,8.10514,2.40323,12.12125,3.85363a6.12652,6.12652,0,0,1,3.41023,3.25983c3.61516,11.0236,7.17392,22.07349,10.37893,33.222q7.37454,25.65213,14.2131,51.45685c1.1409,4.28779,2.59186,6.03253,7.15558,3.79885,6.09867-2.98492,12.25772-6.10387,18.73429-7.979,5.33117-1.54356,11.20213-1.12682,16.75016-2.07081,1.86675-.31762,4.522-1.79287,5.04646-3.3394,7.95411-23.45627,16.12075-46.861,23.207-70.58557,7.939-26.57958,14.79865-53.48072,22.2281-80.21412a134.12111,134.12111,0,0,1,4.45971-12.69955c.41479-1.06422,1.58537-1.83387,2.4087-2.73887.87078,1.08878,2.34791,2.105,2.48863,3.28114a35.31537,35.31537,0,0,1-.1606,7.94269c-2.21251,20.326-4.3635,40.66035-6.82259,60.95709-1.05812,8.73354-3.01036,17.356-4.18243,26.07915-1.57364,11.71184-2.57114,23.50218-4.20213,35.205q-3.65169,26.20169-7.8863,52.321c-1.27643,7.94517,3.56743,18.4684,11.00582,21.63094,1.53513.65268,4.14488-.32877,5.906-1.24,16.54688-8.56193,32.93528-17.43248,49.53253-25.894,16.00036-8.15718,32.17906-15.96583,48.32267-23.83891a33.632,33.632,0,0,1,5.67257-1.64576Q439.5396,401.096,440.06166,402.13016ZM238.20549,518.48423c1.31452-2.05639,2.543-3.4444,3.18327-5.06485,4.80744-12.16668,9.51574-24.37273,14.21939-36.58022,2.28126-5.92057,1.93947-11.26091-1.82125-16.883-11.58963-17.3257-18.50913-36.50207-23.31211-56.83909-4.56748-19.33981-11.38725-38.14749-17.20791-57.19184a25.041,25.041,0,0,1-1.30071-4.784c-.429-4.50386-3.25437-6.00193-7.20084-6.51665C203.42922,341.50442,234.18964,512.00494,238.20549,518.48423ZM128.57226,388.052c2.06017,6.84165,3.73012,12.15385,5.25832,17.50653,4.45509,15.60441,8.06675,31.53349,17.51238,45.19329.79335,1.14732,1.78148,2.54929,2.98025,2.96543,9.71971,3.374,19.44575,6.76994,29.3301,9.59939,2.29322.65644,5.56774-.20743,7.74289-1.47949,3.53748-2.06882,6.54381-5.04723,9.769-7.6484,7.45974-6.01641,7.72205-10.93948.0349-16.64531-8.66739-6.43342-17.83271-12.19424-26.75462-18.28689q-20.17147-13.77477-40.30961-27.59835C132.72319,390.69176,131.26405,389.79331,128.57226,388.052ZM335.92539,260.62791c-1.17567,3.88539-2.43128,7.74867-3.51363,11.65989-5.66918,20.48634-10.93288,41.09305-17.02593,61.45188-7.71743,25.78648-16.07418,51.382-24.22653,77.03729-.78752,2.47828-.33523,3.67022,2.04216,5.12128a70.731,70.731,0,0,1,10.9503,8.45481c3.35809,3.09768,6.24822,6.70264,10.40273,11.24254C324.066,376.67735,329.73631,318.71763,335.92539,260.62791ZM229.70848,507.65353c-4.72507-27.22843-9.98474-53.77768-13.79127-80.53368-3.7823-26.58564-9.19853-52.74842-14.7613-78.92077l-1.45533.29558c5.4275,54.61287,10.855,109.22572,16.32514,164.26779Zm38.33053-85.037c-3.22065,21.38774-6.20333,41.19519-9.22451,61.25821,15.16978-4.92227,30.445-7.76957,42.88371-16.38C290.54877,452.62906,279.52322,437.92854,268.039,422.6165Zm2.80215-2.79561c3.00415,4.01912,5.59731,7.64013,8.34673,11.13833,8.28875,10.546,16.58062,21.09117,25.046,31.49444.92907,1.14173,3.38677,2.30451,4.461,1.85295,5.90077-2.48031,11.59146-5.46047,17.62018-8.39867a22.14514,22.14514,0,0,0-1.54066-2.51412c-6.88359-8.08727-14.28632-15.7887-20.57493-24.31278C295.42508,417.18748,283.95136,417.04763,270.84116,419.82089Zm7.64924,76.19783c7.13747,1.49791,14.11619,2.2853,20.61971,4.48049,10.70324,3.61284,17.64382.48945,22.80683-9.38927,3.31006-6.33338,7.96855-11.962,12.28889-18.297-6.3568-.60174-11.68041-.46416-17.27449,2.38711a205.651,205.651,0,0,1-28.40813,11.86984C283.85931,488.62086,280.49025,490.41925,278.4904,496.01872ZM139.864,390.854l-.12485.51206,65.35006,43.76435c-.94219-7.428-1.59676-13.63016-2.63256-19.768-.18067-1.07064-1.81553-2.25456-3.03535-2.73581-12.50411-4.93327-25.01467-9.858-37.62145-14.52014C154.58113,395.43694,147.182,393.25533,139.864,390.854ZM396.14993,425.8774l-.47632-.95944c-1.2772.55618-2.58886,1.045-3.8264,1.67855-21.14537,10.82585-42.18345,21.86692-63.4533,32.4419-14.85162,7.384-29.94568,14.29636-45.08716,21.07142-4.57169,2.04557-9.66466,2.92611-14.51883,4.34033,6.18088.26073,12.42225.50984,17.94475-1.36193,12.22319-4.14289,24.5507-8.451,35.97476-14.35705,13.83221-7.151,26.686-16.17308,40.13186-24.09935C373.81418,438.16216,385.037,432.113,396.14993,425.8774Zm-64.31,41.41727c7.44919,1.27262,21.15321-.78283,24.54738-3.24947,15.05984-10.9445,30.13654-21.86639,45.127-32.90519,2.8421-2.09288,5.321-4.67892,7.96743-7.03741l-1.07517-1.50913Zm-74.23324-7.69345,2.02053-.20844c1.40074-11.99189,2.80148-23.9838,4.365-37.369-8.07971,3.05033-14.64455,5.52877-22.01347,8.31077C247.38113,440.45168,252.49393,450.02644,257.60672,459.60122Zm-50.2597-5.63558c-5.36733,4.27394-9.41292,7.68736-13.67037,10.81211-2.47488,1.81641-2.28333,3.37568-.8797,5.82376,3.54609,6.18466,6.84053,12.5182,10.09033,18.86656,2.29994,4.49285,4.36241,9.10726,6.53088,13.66737l.85013-.29019C209.32418,487.04816,208.38008,471.25108,207.347,453.96564ZM244.9464,516.1729c10.45464-5.78923,30.79153-22.98979,32.22709-27.88313-6.61257.96178-12.83956,1.74358-19.00358,2.87a5.31971,5.31971,0,0,0-3.191,2.74622C251.55194,501.18193,248.34525,508.56166,244.9464,516.1729Zm-48.57693-183.419c-3.57937-3.86045-4.372-4.00063-8.31077-1.25181a130.64275,130.64275,0,0,0-31.24658,30.3591,25.35776,25.35776,0,0,0-1.53464,2.85151Zm3.41462,3.25236c-11.324,7.05047-22.25537,13.7131-32.01228,24.48355a24.09629,24.09629,0,0,0,3.585-1.023c8.29384-4.5436,16.49411-9.2645,24.87535-13.63916C200.15014,343.7826,201.42,341.06825,199.78409,336.00623Z" transform="translate(-121.58049 -245.26343)"/></svg>