<svg width="428" height="54" viewBox="0 0 428 54" fill="none" xmlns="http://www.w3.org/2000/svg">
<path d="M428 19.4657V0.5H0V36.7207C20 36.7207 60 54 99.9352 54C142.627 54 200 19.4657 242.284 19.4657C279.776 19.4657 329 32.3358 359.017 32.3358C390.214 32.3358 414.48 22.7365 428 19.4657Z" fill="white"/>
<path d="M428 19.4657V9.00008C428 9.00008 389.587 18.7502 362.5 19.4657C335.413 20.1813 319 18.4657 284 11.0001C263.567 6.64154 254.893 7.00008 234 7.00008C213.107 7.00008 177.5 19.4657 157 27.0001C131.876 36.2339 124 36.7207 96.5 36.7207C56.9909 36.7207 0 8.00008 0 8.00008V36.7207C20 36.7207 60 54.0001 99.9352 54.0001C142.627 54.0001 200 19.4657 242.284 19.4657C279.776 19.4657 329 32.3359 359.017 32.3359C390.214 32.3359 414.48 22.7366 428 19.4657Z" fill="url(#paint0_linear_1117_3393)"/>
<defs>
<linearGradient id="paint0_linear_1117_3393" x1="-2.61118e-07" y1="30" x2="428" y2="30.0001" gradientUnits="userSpaceOnUse">
<stop stop-color="#15735D"/>
<stop offset="1" stop-color="#29A86E"/>
</linearGradient>
</defs>
</svg>
